HIERARCHY
ROOT Hips
{
	OFFSET 55.310501 45.591206 43.872097
	CHANNELS 6 Xposition Yposition Zposition Zrotation Xrotation Yrotation
	JOINT Chest
	{
		OFFSET -0.153500 1.163101 7.852402
		CHANNELS 6 Xposition Yposition Zposition Zrotation Xrotation Yrotation
		JOINT Chest2
		{
			OFFSET 0.000000 0.000000 3.343300
			CHANNELS 6 Xposition Yposition Zposition Zrotation Xrotation Yrotation
			JOINT Neck
			{
				OFFSET 0.000000 0.000000 7.785500
				CHANNELS 6 Xposition Yposition Zposition Zrotation Xrotation Yrotation
				JOINT Head
				{
					OFFSET 0.000000 0.000000 2.173901
					CHANNELS 6 Xposition Yposition Zposition Zrotation Xrotation Yrotation
					End Site
					{
						OFFSET 0.000000 0.000000 10.528198
					}
				}
			}
			JOINT LeftCollar
			{
				OFFSET 2.676300 -1.652401 4.938301
				CHANNELS 6 Xposition Yposition Zposition Zrotation Xrotation Yrotation
				JOINT LeftShoulder
				{
					OFFSET 4.299000 0.000000 0.000000
					CHANNELS 6 Xposition Yposition Zposition Zrotation Xrotation Yrotation
					JOINT LeftElbow
					{
						OFFSET 0.000000 0.000000 -10.245102
						CHANNELS 6 Xposition Yposition Zposition Zrotation Xrotation Yrotation
						JOINT LeftWrist
						{
							OFFSET 0.000000 0.000000 -12.703300
							CHANNELS 6 Xposition Yposition Zposition Zrotation Xrotation Yrotation
							End Site
							{
								OFFSET 0.000000 0.000000 -2.173901
							}
						}
					}
				}
			}
			JOINT RightCollar
			{
				OFFSET -2.534599 -1.686401 5.195000
				CHANNELS 6 Xposition Yposition Zposition Zrotation Xrotation Yrotation
				JOINT RightShoulder
				{
					OFFSET -4.144100 0.000000 0.000000
					CHANNELS 6 Xposition Yposition Zposition Zrotation Xrotation Yrotation
					JOINT RightElbow
					{
						OFFSET 0.000000 0.000000 -10.116501
						CHANNELS 6 Xposition Yposition Zposition Zrotation Xrotation Yrotation
						JOINT RightWrist
						{
							OFFSET 0.000000 0.000000 -12.937801
							CHANNELS 6 Xposition Yposition Zposition Zrotation Xrotation Yrotation
							End Site
							{
								OFFSET 0.000000 0.000000 -2.173901
							}
						}
					}
				}
			}
		}
	}
	JOINT LeftHip
	{
		OFFSET 2.175598 0.064499 -2.662899
		CHANNELS 6 Xposition Yposition Zposition Zrotation Xrotation Yrotation
		JOINT LeftKnee
		{
			OFFSET 0.000000 -0.000004 -18.585800
			CHANNELS 6 Xposition Yposition Zposition Zrotation Xrotation Yrotation
			JOINT LeftAnkle
			{
				OFFSET 0.000000 0.000000 -18.979500
				CHANNELS 6 Xposition Yposition Zposition Zrotation Xrotation Yrotation
				End Site
				{
					OFFSET 0.000000 -9.264000 0.000000
				}
			}
		}
	}
	JOINT RightHip
	{
		OFFSET -2.092400 -0.058102 -2.581200
		CHANNELS 6 Xposition Yposition Zposition Zrotation Xrotation Yrotation
		JOINT RightKnee
		{
			OFFSET 0.000000 -0.000004 -18.665001
			CHANNELS 6 Xposition Yposition Zposition Zrotation Xrotation Yrotation
			JOINT RightAnkle
			{
				OFFSET 0.000000 0.000000 -18.566601
				CHANNELS 6 Xposition Yposition Zposition Zrotation Xrotation Yrotation
				End Site
				{
					OFFSET 0.000000 -8.497601 0.000000
				}
			}
		}
	}
}
MOTION
Frames: 9
Frame Time: 0.041667
51.187801 27.391901 10.852997 1451.345804 -4.718476 -10.129404 -0.153503 1.163111 7.852399 -12.985120 7.482271 11.181117 0.000004 0.000007 3.343298 -12.351223 -15.083259 -1.791025 -0.000004 -0.000002 7.785504 50.950582 -9.748142 -19.773112 0.000002 0.000006 2.173902 6.957536 -1.493084 8.376932 2.676304 -1.652395 4.938305 -3.238942 4.956156 29.174057 4.299004 -0.000001 -0.000000 -26.274385 1.713920 -117.399832 -0.000003 -0.000006 -10.245101 72.084075 711.992142 1.675049 0.000003 -0.000005 -12.703303 1324.092604 -175.459869 529.528065 -2.534593 -1.686403 5.195004 -3.002758 7.904288 -10.092023 -4.144102 0.000001 0.000002 44.024227 -25.045276 157.852816 0.000000 -0.000004 -10.116491 -85.130030 -7.993054 -6.905519 0.000003 0.000009 -12.937802 -355.967057 -361.647124 27.882700 2.175601 0.064501 -2.662892 -561.648750 0.256466 104.515527 -0.000007 -0.000000 -18.585802 6.731884 -202.743183 -102.210823 -0.000003 -0.000002 -18.979517 800.455004 14.636221 -138.715090 -2.092402 -0.058096 -2.581199 997.453396 -32.603867 -66.299082 0.000006 -0.000001 -18.665005 -1707.060437 -32.034004 -135.973589 0.000001 -0.000003 -18.566607 695.579963 34.513479 -108.378436
51.187202 27.395706 10.851898 1451.366568 -4.686414 -10.132754 -0.153501 1.163106 7.852402 -13.005379 7.471687 11.187564 0.000004 0.000006 3.343307 -12.384624 -15.075442 -1.798524 -0.000004 -0.000005 7.785503 50.972647 -9.795902 -19.746277 0.000001 0.000005 2.173903 6.963145 -1.462503 8.305228 2.676302 -1.652402 4.938303 -3.101229 4.971127 29.102319 4.299002 0.000002 0.000003 -26.389529 1.706140 -117.381022 -0.000002 -0.000003 -10.245108 72.032671 711.984711 1.672571 -0.000013 -0.000009 -12.703311 1324.128777 -175.407140 529.481729 -2.534590 -1.686407 5.195001 -3.007366 7.870716 -9.978957 -4.144104 0.000000 0.000002 43.778016 -25.080282 157.641067 -0.000003 -0.000009 -10.116503 -85.386223 -7.995542 -6.924262 0.000006 0.000010 -12.937801 -355.886132 -361.643955 27.958213 2.175597 0.064500 -2.662901 -561.674377 0.287856 104.519141 -0.000007 -0.000006 -18.585806 6.741091 -202.748387 -102.228370 -0.000003 0.000003 -18.979509 800.457299 14.646970 -138.718806 -2.092402 -0.058103 -2.581194 997.398318 -32.596928 -66.355151 0.000004 -0.000007 -18.664997 -1707.047432 -32.032156 -135.981977 -0.000005 -0.000003 -18.566608 695.575209 34.513499 -108.384174
51.189804 27.398201 10.848801 1451.446126 -4.679441 -10.175681 -0.153500 1.163100 7.852402 -13.091651 7.456891 11.237434 -0.000007 0.000007 3.343304 -12.411953 -15.061296 -1.804690 0.000002 -0.000005 7.785506 50.988195 -9.832423 -19.720687 -0.000000 -0.000002 2.173903 6.979441 -1.433681 8.232754 2.676301 -1.652402 4.938303 -3.009831 4.972849 29.036203 4.299002 0.000010 -0.000004 -26.483331 1.656726 -117.364875 0.000001 -0.000010 -10.245106 71.953782 711.983181 1.671713 -0.000001 -0.000003 -12.703301 1324.144732 -175.358263 529.431732 -2.534598 -1.686406 5.195001 -2.993842 7.854365 -9.891612 -4.144098 -0.000001 -0.000006 43.546588 -25.109691 157.469656 -0.000000 0.000001 -10.116496 -85.704831 -7.989584 -6.946402 0.000002 0.000010 -12.937805 -355.718629 -361.673898 27.986845 2.175596 0.064501 -2.662895 -561.759126 0.380960 104.483296 -0.000005 -0.000000 -18.585800 6.667462 -202.665551 -102.232789 0.000006 -0.000006 -18.979517 800.525328 14.656357 -138.742138 -2.092396 -0.058105 -2.581199 997.287505 -32.638756 -66.389015 0.000008 -0.000004 -18.665001 -1707.037378 -32.027993 -135.998424 -0.000008 -0.000005 -18.566612 695.579252 34.513981 -108.381346
51.195705 27.399303 10.844296 1451.580762 -4.699786 -10.257170 -0.153509 1.163105 7.852397 -13.241787 7.444046 11.330853 0.000003 0.000002 3.343304 -12.432150 -15.044091 -1.809457 -0.000006 -0.000001 7.785506 51.000036 -9.863946 -19.695745 -0.000005 0.000001 2.173911 6.999996 -1.406496 8.165849 2.676288 -1.652396 4.938305 -2.957569 4.961990 28.989468 4.298998 0.000009 0.000004 -26.556653 1.593875 -117.365654 -0.000003 -0.000001 -10.245097 71.870167 711.990940 1.672389 -0.000002 -0.000005 -12.703300 1324.142984 -175.322541 529.382827 -2.534598 -1.686402 5.195000 -2.969897 7.854849 -9.846091 -4.144096 -0.000003 0.000008 43.337113 -25.122945 157.349609 0.000005 -0.000009 -10.116496 -85.926478 -7.993189 -6.945936 0.000003 0.000001 -12.937811 -355.627869 -361.723950 27.971831 2.175591 0.064506 -2.662895 -561.899446 0.529057 104.408683 -0.000004 0.000006 -18.585804 6.512770 -202.493471 -102.222080 -0.000002 -0.000009 -18.979521 800.660237 14.663697 -138.785892 -2.092406 -0.058097 -2.581196 997.121504 -32.724177 -66.398209 0.000004 -0.000010 -18.665005 -1707.029400 -32.025330 -136.024788 -0.000005 -0.000006 -18.566607 695.587558 34.514688 -108.374632
51.204407 27.399406 10.838501 1451.763921 -4.741988 -10.373303 -0.153500 1.163105 7.852402 -13.447477 7.430476 11.462084 -0.000001 0.000001 3.343302 -12.443010 -15.025711 -1.812364 -0.000002 0.000004 7.785502 51.007532 -9.891024 -19.672546 0.000001 -0.000002 2.173901 7.019200 -1.380932 8.110418 2.676295 -1.652396 4.938304 -2.949664 4.936326 28.978249 4.299004 -0.000004 -0.000001 -26.595541 1.545958 -117.395939 0.000008 -0.000005 -10.245108 71.800308 712.006021 1.673282 -0.000008 -0.000003 -12.703300 1324.135880 -175.303062 529.338240 -2.534598 -1.686399 5.194998 -2.936636 7.877546 -9.856303 -4.144100 0.000004 -0.000008 43.217861 -25.106495 157.330498 0.000002 -0.000007 -10.116500 -86.063327 -7.975465 -6.889951 -0.000000 0.000008 -12.937808 -355.518450 -361.791487 27.898627 2.175597 0.064501 -2.662896 -562.087740 0.727455 104.301490 -0.000010 -0.000006 -18.585802 6.289997 -202.248663 -102.195210 0.000003 -0.000001 -18.979507 800.850390 14.666390 -138.843184 -2.092393 -0.058098 -2.581196 996.899659 -32.845342 -66.392437 0.000006 -0.000005 -18.665001 -1707.020439 -32.024411 -136.062901 -0.000005 -0.000004 -18.566608 695.599524 34.516132 -108.366634
51.215603 27.398800 10.831501 1451.999098 -4.803413 -10.522838 -0.153494 1.163104 7.852404 -13.712169 7.415294 11.629311 -0.000003 -0.000002 3.343304 -12.445608 -15.007090 -1.813509 -0.000008 -0.000005 7.785503 50.779516 -9.765121 -19.481381 -0.000004 -0.000000 2.173903 7.295018 -1.449029 7.873185 2.676292 -1.652397 4.938305 -2.966598 4.900961 28.995540 4.299004 0.000006 -0.000003 -26.615022 1.524280 -117.447507 0.000002 -0.000003 -10.245104 71.747155 712.024599 1.673603 -0.000002 -0.000004 -12.703290 1324.135443 -175.273555 529.296931 -2.534601 -1.686407 5.195004 -2.899997 7.916561 -9.919782 -4.144102 0.000004 -0.000015 43.209894 -25.064530 157.418252 0.000003 -0.000006 -10.116493 -86.100265 -7.935525 -6.784415 0.000008 0.000004 -12.937808 -355.407719 -361.857166 27.818676 2.175603 0.064504 -2.662897 -562.325923 0.976038 104.165111 -0.000001 -0.000002 -18.585800 6.014400 -201.962779 -102.150581 -0.000002 -0.000005 -18.979515 801.066497 14.662398 -138.907087 -2.092400 -0.058102 -2.581200 996.612573 -32.997959 -66.378360 0.000007 -0.000007 -18.665005 -1707.005686 -32.024899 -136.112761 -0.000001 -0.000012 -18.566603 695.616026 34.518939 -108.359995
51.224506 27.399700 10.825996 1452.208703 -4.847037 -10.639431 -0.153493 1.163105 7.852405 -13.943952 7.396869 11.757415 0.000000 0.000004 3.343300 -12.442241 -14.991623 -1.813568 -0.000004 0.000005 7.785507 50.783819 -9.789521 -19.456444 -0.000001 0.000009 2.173902 7.306541 -1.435639 7.853911 2.676299 -1.652395 4.938300 -2.995595 4.859419 29.047060 4.299006 0.000005 0.000004 -26.617688 1.551134 -117.524907 -0.000003 -0.000014 -10.245106 71.723769 712.047440 1.671136 0.000000 -0.000000 -12.703301 1324.142656 -175.243133 529.261359 -2.534602 -1.686398 5.195009 -2.858329 7.974199 -10.042337 -4.144096 0.000002 -0.000008 43.330587 -25.001440 157.624715 0.000006 -0.000005 -10.116495 -85.992997 -7.873647 -6.625907 0.000012 0.000001 -12.937804 -355.324035 -361.914976 27.752158 2.175600 0.064502 -2.662894 -562.536839 1.165595 104.063744 -0.000001 0.000003 -18.585800 5.826009 -201.788910 -102.108576 0.000011 -0.000002 -18.979521 801.193320 14.657045 -138.948259 -2.092393 -0.058102 -2.581200 996.348982 -33.118296 -66.385204 0.000002 -0.000008 -18.665005 -1706.988638 -32.019551 -136.155108 -0.000004 -0.000008 -18.566610 695.636025 34.522447 -108.353739
51.230804 27.402199 10.821796 1452.380714 -4.872372 -10.717487 -0.153501 1.163107 7.852405 -14.130323 7.379963 11.841141 0.000007 0.000007 3.343300 -12.435262 -14.981549 -1.812868 -0.000006 -0.000003 7.785501 50.786548 -9.813343 -19.433051 0.000003 0.000002 2.173902 7.311423 -1.426830 7.849110 2.676292 -1.652397 4.938303 -3.031927 4.813490 29.135989 4.299002 0.000004 0.000005 -26.598189 1.639008 -117.629477 -0.000004 -0.000009 -10.245104 71.737559 712.072465 1.664762 -0.000004 -0.000004 -12.703315 1324.629512 -174.991605 528.315187 -2.534601 -1.686400 5.195006 -2.812493 8.050256 -10.218511 -4.144096 -0.000001 -0.000002 43.571395 -24.919520 157.933822 -0.000002 -0.000004 -10.116491 -85.761611 -7.789336 -6.422015 0.000002 -0.000004 -12.937804 -355.228303 -361.965848 27.669008 2.175594 0.064507 -2.662895 -562.709178 1.285179 104.002553 -0.000009 -0.000009 -18.585804 5.728447 -201.718053 -102.070108 -0.000009 0.000001 -18.979513 801.242443 14.652021 -138.968286 -2.092401 -0.058102 -2.581193 996.129542 -33.203435 -66.407559 0.000004 -0.000005 -18.665005 -1706.975414 -32.010218 -136.186937 -0.000002 -0.000009 -18.566608 695.655095 34.525834 -108.349675
51.234505 27.406298 10.818897 1452.503111 -4.879584 -10.754513 -0.153503 1.163106 7.852406 -14.259003 7.366839 11.877600 0.000003 -0.000003 3.343302 -12.427574 -14.975287 -1.812025 -0.000008 -0.000008 7.785502 50.785301 -9.831246 -19.409944 0.000006 0.000007 2.173903 7.312876 -1.421712 7.851865 2.676297 -1.652398 4.938304 -3.070421 4.766031 29.246245 4.299009 -0.000008 0.000004 -26.566043 1.764731 -117.745494 -0.000003 -0.000004 -10.245109 71.758343 712.097491 1.652267 -0.000006 -0.000001 -12.703301 1324.662843 -174.952509 528.263660 -2.534595 -1.686407 5.195004 -2.761612 8.141334 -10.428777 -4.144114 -0.000001 -0.000013 43.942353 -24.825275 158.335451 0.000008 -0.000002 -10.116497 -85.606470 -7.658398 -6.202947 0.000004 0.000002 -12.937805 -354.926819 -362.020161 27.590875 2.175602 0.064498 -2.662896 -562.833269 1.327945 103.982697 -0.000000 -0.000004 -18.585800 5.728992 -201.764143 -102.039256 0.000012 -0.000004 -18.979506 801.204576 14.650259 -138.966469 -2.092402 -0.058101 -2.581192 995.973376 -33.256072 -66.440208 0.000009 -0.000007 -18.665005 -1706.974212 -31.996950 -136.207509 0.000002 -0.000005 -18.566607 695.671159 34.528655 -108.346403
